<svg width="20" height="20" viewBox="0 0 20 20" fill="none" xmlns="http://www.w3.org/2000/svg">
<path d="M18.3332 14.1003V16.6003C18.3341 16.8324 18.2866 17.0622 18.1936 17.2748C18.1006 17.4875 17.9643 17.6783 17.7933 17.8352C17.6222 17.9921 17.4203 18.1116 17.2005 18.1859C16.9806 18.2603 16.7477 18.2879 16.5165 18.267C13.9522 17.9884 11.489 17.1121 9.32486 15.7087C7.31139 14.4292 5.60431 12.7222 4.32486 10.7087C2.91651 8.53468 2.04007 6.05951 1.76653 3.48368C1.7457 3.25323 1.77309 3.02098 1.84695 2.8017C1.9208 2.58242 2.03951 2.38092 2.1955 2.21003C2.3515 2.03914 2.54137 1.9026 2.75302 1.80911C2.96468 1.71562 3.19348 1.66723 3.42486 1.66701H5.92486C6.32928 1.66303 6.72136 1.80624 7.028 2.06996C7.33464 2.33367 7.53493 2.69988 7.59153 3.10035C7.69705 3.9004 7.89274 4.68595 8.17486 5.44201C8.28698 5.74028 8.31125 6.06444 8.24478 6.37608C8.17832 6.68772 8.02392 6.97377 7.79986 7.20035L6.74153 8.25868C7.92783 10.345 9.65524 12.0724 11.7415 13.2587L12.7999 12.2003C13.0264 11.9763 13.3125 11.8219 13.6241 11.7554C13.9358 11.689 14.2599 11.7132 14.5582 11.8253C15.3143 12.1075 16.0998 12.3032 16.8999 12.4087C17.3047 12.4658 17.6744 12.6697 17.9386 12.9816C18.2029 13.2935 18.3433 13.6917 18.3332 14.1003Z" stroke="#2E2E2E" stroke-width="2" stroke-linecap="round" stroke-linejoin="round"/>
</svg>
