<svg width="159" height="35" viewBox="0 0 159 35" fill="none" xmlns="http://www.w3.org/2000/svg">
<path d="M63.8965 22.6348H78.2095V24.1887H66.9631V26.2882H77.6642V27.6828H66.9631V29.9386H78.3321V31.4956H63.8965V22.6348Z" fill="white"/>
<path d="M94.3832 31.4956H91.7791V30.1409C91.1725 31.3362 90.183 31.655 87.1746 31.655C84.932 31.655 83.7219 31.4282 82.9346 30.8581C82.328 30.4075 82.1074 29.862 82.1074 28.826V25.2676H84.7727V28.7463C84.7727 29.9417 85.3977 30.2328 87.9834 30.2328C90.7712 30.2328 91.7179 29.767 91.7179 28.4153V25.2676H94.3832V31.4956Z" fill="white"/>
<path d="M98.457 25.265H101.021V26.5799C101.444 25.9148 101.689 25.6911 102.173 25.5041C102.798 25.2773 103.788 25.1455 105.019 25.1455C106.919 25.1455 108.107 25.4367 108.613 26.0221C108.934 26.393 109.057 26.8312 109.057 27.576C109.057 27.6435 109.057 27.8028 109.039 27.9745H106.514C106.514 27.4289 106.474 27.245 106.312 27.0182C106.07 26.7117 105.323 26.5401 104.21 26.5401C101.968 26.5401 101.122 27.0305 101.122 28.2932V31.4931H98.457V25.265Z" fill="white"/>
<path d="M124.116 25.8743C124.824 26.3126 125.045 26.9225 125.045 28.4918C125.045 29.5951 124.723 30.484 124.196 30.8303C123.853 31.0571 123.268 31.2686 122.784 31.3606C122.036 31.5077 120.158 31.6119 118.342 31.6119C112.971 31.6119 112 31.1215 112 28.3569C112 26.9501 112.282 26.2574 113.011 25.8314C113.354 25.6321 113.899 25.4605 114.445 25.3655C115.152 25.2459 117.089 25.1387 118.443 25.1387C121.776 25.1387 123.228 25.3256 124.116 25.8681M115.232 26.9164C114.849 27.1953 114.708 27.606 114.708 28.3906C114.708 29.9967 115.232 30.2756 118.222 30.2756C120.14 30.2756 121.028 30.2081 121.494 30.0365C122.119 29.7974 122.343 29.3714 122.343 28.4305C122.343 26.757 121.837 26.4658 118.911 26.4658C116.549 26.4658 115.682 26.5731 115.238 26.9164" fill="white"/>
<path d="M131.428 25.265V26.4205C131.894 25.4122 132.822 25.1455 135.79 25.1455C138.759 25.1455 140.171 25.3723 140.98 25.9424C141.565 26.3684 141.829 27.0979 141.829 28.3729C141.829 31.0027 140.738 31.6126 136.075 31.6126C133.027 31.6126 131.835 31.3061 131.431 30.4295V34.1749H128.766V25.262H131.431L131.428 25.265ZM135.809 30.2579C138.575 30.2579 139.081 29.9667 139.081 28.3178C139.081 27.5331 138.9 27.1102 138.456 26.8312C138.214 26.6841 137.73 26.5646 137.203 26.5247L134.859 26.4726C131.912 26.4726 131.428 26.7516 131.428 28.4526C131.428 29.3169 131.691 29.8073 132.255 29.9943C132.62 30.1261 133.082 30.2058 133.588 30.2058L135.809 30.2579Z" fill="white"/>
<path d="M147.918 28.7196C147.918 29.4092 148.12 29.8751 148.485 30.1019C148.889 30.3563 149.998 30.4605 151.977 30.4605C154.198 30.4605 154.906 30.2613 155.025 29.5563H157.651C157.611 30.2337 157.329 30.6842 156.744 31.006C155.917 31.4443 154.584 31.6037 151.796 31.6037C149.615 31.6037 147.918 31.4842 147.192 31.2727C145.74 30.8344 145.191 30.0774 145.191 28.4161C145.191 27.0737 145.535 26.3166 146.343 25.8262C147.192 25.3083 148.423 25.1611 151.714 25.1611C154.762 25.1611 155.954 25.3481 156.763 25.9304C157.427 26.4362 157.672 27.0461 157.672 28.3089V28.7196H147.921H147.918ZM155.025 27.6836C155.025 27.325 154.964 27.1258 154.783 26.899C154.643 26.7273 154.462 26.5925 154.26 26.5281C153.794 26.3963 152.887 26.3013 151.898 26.3013C149.857 26.3013 149.272 26.3411 148.708 26.5404C148.203 26.7273 147.921 27.1135 147.921 27.6039V27.6836H155.029H155.025Z" fill="white"/>
<path d="M24.8364 8.77249C24.8364 10.1211 24.8242 10.9343 24.7997 11.2122C24.7629 12.521 24.429 13.278 23.7121 13.6673C22.8084 14.1607 21.2643 14.2772 15.4558 14.2772C10.842 14.2772 9.16929 13.9646 8.56271 12.993C8.25022 12.4719 8.09398 10.92 8.09398 8.33727V0.1875H0V10.2253C0 12.7815 0.147052 14.0105 0.585144 15.0986C1.29283 16.8855 3.01763 18.0256 5.86063 18.5865C7.52722 18.9206 10.0731 19.031 16.335 19.031C21.3409 19.031 24.3892 18.9666 25.3818 18.8379C28.767 18.4762 31.0433 17.3575 32.1492 15.5093C32.7803 14.4274 32.9365 13.3424 32.9365 9.98009V0.1875H24.8395V8.76943L24.8364 8.77249Z" fill="#E30613"/>
<path d="M65.0207 13.8757L49.9387 0.23654L49.8866 0.1875H37.332V18.8654H45.1258L44.9389 5.3152L59.8432 18.8654H72.5111V0.1875H64.8307L65.0207 13.8757Z" fill="#E30613"/>
<path d="M86.1752 0.1875H78.0781V18.8654H86.1752V0.1875Z" fill="#E30613"/>
<path d="M114.754 11.7906C114.754 13.0135 114.408 13.5315 113.381 13.8441C112.34 14.1721 111.47 14.1935 105.9 14.1935C98.6393 14.1935 98.2073 13.9392 98.2073 9.65126C98.2073 6.60161 98.4218 6.02233 99.2122 5.49209C100.116 4.90974 101.341 4.8086 107.398 4.8086C114.12 4.8086 114.395 5.0354 114.53 6.81002L114.542 6.97553H122.161V6.1909C122.161 3.39871 121.181 1.74056 119.08 0.968185C116.914 0.189682 114.885 0.0517578 105.523 0.0517578C103.651 0.0517578 96.1701 0.260176 93.7958 1.27468C91.0937 2.40566 90.3125 4.16189 90.3125 9.09956C90.3125 14.638 91.0508 16.5842 93.6028 17.7734C95.6523 18.7481 98.0419 18.9994 105.226 18.9994C109.922 18.9994 113.155 18.9749 114.757 18.8615C118.684 18.6684 120.792 17.896 121.797 16.2808C122.361 15.395 122.462 14.4326 122.498 11.7937V11.6098H114.754V11.7906Z" fill="#E30613"/>
<path d="M158.778 5.33612C158.257 2.32325 156.395 0.812218 152.55 0.275848C150.822 0.0551695 148.69 0 141.683 0C135.222 0 133.022 0.113404 130.982 0.551695C128.167 1.17388 126.727 2.24969 126.013 4.26338C125.572 5.51389 125.492 6.2832 125.492 9.40334C125.492 13.5012 125.728 14.8375 126.687 16.2015C127.637 17.6052 129.267 18.3898 131.975 18.7484C133.424 18.9661 136.288 19.0519 142.192 19.0519C144.655 19.0519 147.823 19.0243 149.112 18.9691C152.663 18.8588 154.725 18.4205 156.223 17.4612C158.352 16.1371 158.999 14.3502 158.999 9.81405C158.999 7.55823 158.925 6.0901 158.778 5.33612ZM151.294 9.32059C151.294 11.748 151.11 12.6246 150.47 13.2346C149.676 14.0652 148.346 14.2245 142.081 14.2245C136.579 14.2245 135.363 14.1142 134.426 13.538C133.568 12.9955 133.307 12.0362 133.307 9.43092C133.307 6.8257 133.574 6.00735 134.49 5.46791C135.418 4.95606 136.944 4.8304 142.265 4.8304C148.284 4.8304 151.294 6.32713 151.294 9.32059Z" fill="#E30613"/>
</svg>
