<svg width="170" height="37" viewBox="0 0 170 37" fill="none" xmlns="http://www.w3.org/2000/svg">
<g clip-path="url(#clip0_215_8597)">
<path d="M68.3164 24.2007H83.6197V25.8621H71.5952V28.1069H83.0366V29.5979H71.5952V32.0098H83.7507V33.6746H68.3164V24.2007Z" fill="black"/>
<path d="M100.912 33.6745H98.1279V32.2261C97.4794 33.5041 96.4214 33.8449 93.2048 33.8449C90.8071 33.8449 89.5133 33.6024 88.6715 32.9929C88.0229 32.5112 87.7871 31.9279 87.7871 30.8202V27.0156H90.6368V30.735C90.6368 32.0131 91.305 32.3244 94.0696 32.3244C97.0503 32.3244 98.0624 31.8263 98.0624 30.3811V27.0156H100.912V33.6745Z" fill="black"/>
<path d="M105.27 27.0126H108.011V28.4184C108.463 27.7073 108.725 27.4681 109.243 27.2682C109.911 27.0257 110.969 26.8848 112.286 26.8848C114.317 26.8848 115.587 27.1961 116.128 27.822C116.472 28.2185 116.603 28.6871 116.603 29.4834C116.603 29.5555 116.603 29.7259 116.583 29.9095H113.884C113.884 29.3261 113.842 29.1295 113.668 28.887C113.409 28.5593 112.61 28.3758 111.421 28.3758C109.023 28.3758 108.119 28.9001 108.119 30.2503V33.6715H105.27V27.0126Z" fill="black"/>
<path d="M132.705 27.6646C133.461 28.1332 133.697 28.7853 133.697 30.4632C133.697 31.6429 133.353 32.5932 132.79 32.9635C132.423 33.206 131.797 33.4322 131.28 33.5305C130.481 33.6878 128.473 33.7992 126.53 33.7992C120.788 33.7992 119.75 33.2749 119.75 30.319C119.75 28.8148 120.051 28.0742 120.831 27.6187C121.198 27.4057 121.781 27.2222 122.364 27.1206C123.121 26.9928 125.191 26.8781 126.638 26.8781C130.202 26.8781 131.755 27.078 132.705 27.658M123.206 28.7788C122.796 29.077 122.646 29.5161 122.646 30.355C122.646 32.0722 123.206 32.3704 126.403 32.3704C128.453 32.3704 129.403 32.2983 129.901 32.1148C130.569 31.8592 130.808 31.4037 130.808 30.3976C130.808 28.6084 130.268 28.2971 127.14 28.2971C124.614 28.2971 123.687 28.4118 123.212 28.7788" fill="black"/>
<path d="M140.52 27.0125V28.2479C141.018 27.1698 142.011 26.8847 145.185 26.8847C148.359 26.8847 149.869 27.1272 150.733 27.7367C151.359 28.1922 151.641 28.9722 151.641 30.3354C151.641 33.1471 150.475 33.7992 145.489 33.7992C142.23 33.7992 140.956 33.4715 140.524 32.5343V36.5388H137.674V27.0092H140.524L140.52 27.0125ZM145.204 32.3508C148.162 32.3508 148.703 32.0395 148.703 30.2764C148.703 29.4375 148.509 28.9853 148.034 28.6871C147.776 28.5298 147.258 28.402 146.695 28.3594L144.189 28.3037C141.038 28.3037 140.52 28.6019 140.52 30.4206C140.52 31.3447 140.802 31.8691 141.405 32.069C141.794 32.2099 142.289 32.2951 142.83 32.2951L145.204 32.3508Z" fill="black"/>
<path d="M158.152 30.7057C158.152 31.443 158.368 31.9411 158.758 32.1836C159.19 32.4556 160.376 32.567 162.492 32.567C164.866 32.567 165.623 32.354 165.751 31.6003H168.558C168.515 32.3245 168.214 32.8063 167.588 33.1503C166.704 33.619 165.279 33.7894 162.298 33.7894C159.966 33.7894 158.152 33.6616 157.375 33.4354C155.823 32.9668 155.236 32.1574 155.236 30.3813C155.236 28.9459 155.603 28.1365 156.468 27.6122C157.375 27.0584 158.692 26.9011 162.21 26.9011C165.469 26.9011 166.743 27.101 167.608 27.7236C168.319 28.2643 168.581 28.9164 168.581 30.2666V30.7057H158.155H158.152ZM165.751 29.5981C165.751 29.2146 165.685 29.0016 165.492 28.7591C165.341 28.5756 165.148 28.4314 164.932 28.3626C164.434 28.2217 163.464 28.1201 162.406 28.1201C160.225 28.1201 159.599 28.1627 158.997 28.3757C158.456 28.5756 158.155 28.9885 158.155 29.5128V29.5981H165.754H165.751Z" fill="black"/>
<path d="M26.5547 9.37883C26.5547 10.8207 26.5416 11.6902 26.5154 11.9873C26.4761 13.3866 26.1191 14.196 25.3526 14.6122C24.3863 15.1398 22.7355 15.2644 16.525 15.2644C11.5921 15.2644 9.80366 14.9301 9.15511 13.8913C8.821 13.3342 8.65395 11.6749 8.65395 8.91349V0.19989H0V10.9321C0 13.6652 0.157225 14.9793 0.625626 16.1426C1.38227 18.0531 3.2264 19.2722 6.26609 19.8718C8.04798 20.229 10.7699 20.347 17.4651 20.347C22.8173 20.347 26.0765 20.2782 27.1378 20.1406C30.7572 19.7539 33.1909 18.5578 34.3734 16.5817C35.0482 15.4249 35.2152 14.2649 35.2152 10.67V0.19989H26.558V9.37555L26.5547 9.37883Z" fill="#E30613"/>
<path d="M69.5203 14.8349L53.3948 0.252139L53.3391 0.199707H39.916V20.1699H48.249L48.0492 5.68216L63.9846 20.1699H77.5289V0.199707H69.3172L69.5203 14.8349Z" fill="#E30613"/>
<path d="M92.1377 0.199707H83.4805V20.1699H92.1377V0.199707Z" fill="#E30613"/>
<path d="M122.691 12.6067C122.691 13.9142 122.321 14.4681 121.223 14.8023C120.11 15.153 119.179 15.1759 113.224 15.1759C105.461 15.1759 105 14.9039 105 10.3194C105 7.05872 105.229 6.43936 106.074 5.87244C107.04 5.2498 108.35 5.14166 114.826 5.14166C122.013 5.14166 122.308 5.38416 122.452 7.28156L122.465 7.45852H130.611V6.6196C130.611 3.63423 129.563 1.86136 127.316 1.03555C125 0.203191 122.832 0.0557251 112.822 0.0557251C110.82 0.0557251 102.821 0.278562 100.283 1.36326C97.3939 2.57248 96.5586 4.45021 96.5586 9.72949C96.5586 15.6511 97.348 17.732 100.077 19.0035C102.268 20.0456 104.823 20.3143 112.504 20.3143C117.525 20.3143 120.981 20.2881 122.694 20.1668C126.893 19.9604 129.147 19.1345 130.221 17.4076C130.824 16.4605 130.932 15.4315 130.971 12.61V12.4134H122.691V12.6067Z" fill="#E30613"/>
<path d="M169.764 5.70529C169.208 2.48398 167.216 0.86841 163.105 0.294932C161.258 0.0589864 158.978 0 151.487 0C144.579 0 142.227 0.12125 140.046 0.589864C137.035 1.2551 135.496 2.40533 134.733 4.55834C134.261 5.89536 134.176 6.71789 134.176 10.0539C134.176 14.4353 134.428 15.8641 135.453 17.3223C136.469 18.8232 138.211 19.6621 141.107 20.0455C142.656 20.2782 145.719 20.37 152.031 20.37C154.664 20.37 158.051 20.3405 159.43 20.2815C163.226 20.1635 165.431 19.6949 167.033 18.6692C169.309 17.2535 170 15.343 170 10.493C170 8.08113 169.922 6.51144 169.764 5.70529ZM161.762 9.96542C161.762 12.5608 161.566 13.498 160.881 14.1502C160.033 15.0382 158.611 15.2087 151.913 15.2087C146.03 15.2087 144.73 15.0907 143.727 14.4746C142.81 13.8946 142.532 12.8689 142.532 10.0834C142.532 7.29792 142.817 6.42296 143.796 5.8462C144.788 5.29894 146.42 5.16458 152.109 5.16458C158.545 5.16458 161.762 6.76486 161.762 9.96542Z" fill="#E30613"/>
</g>
<defs>
<clipPath id="clip0_215_8597">
<rect width="170" height="36.5421" fill="white"/>
</clipPath>
</defs>
</svg>
